<mxfile host="app.diagrams.net" modified="2024-02-29T12:47:23.210Z" agent="Mozilla/5.0 (Windows NT 10.0; Win64; x64) AppleWebKit/537.36 (KHTML, like Gecko) Chrome/122.0.0.0 Safari/537.36 Edg/122.0.0.0" etag="VvC8maerNosYbcRxLU3H" version="23.1.6" type="device">
  <diagram name="第 1 页" id="99LH12-iIIygt7aytNjT">
    <mxGraphModel dx="1893" dy="1029" grid="1" gridSize="10" guides="1" tooltips="1" connect="1" arrows="1" fold="1" page="1" pageScale="1" pageWidth="1200" pageHeight="1600" math="0" shadow="0">
      <root>
        <mxCell id="0" />
        <mxCell id="1" parent="0" />
        <mxCell id="C2tQ5hw08ddfcZUhMbzI-1" value="" style="rounded=1;whiteSpace=wrap;html=1;strokeWidth=2;" parent="1" vertex="1">
          <mxGeometry x="70" y="80" width="730" height="270" as="geometry" />
        </mxCell>
        <mxCell id="C2tQ5hw08ddfcZUhMbzI-2" value="&lt;font style=&quot;font-size: 24px;&quot;&gt;用户应用层&lt;/font&gt;" style="rounded=0;whiteSpace=wrap;html=1;align=center;dashed=1;" parent="1" vertex="1">
          <mxGeometry x="110" y="103" width="40" height="220" as="geometry" />
        </mxCell>
        <mxCell id="C2tQ5hw08ddfcZUhMbzI-3" value="" style="rounded=0;whiteSpace=wrap;html=1;dashed=1;fontSize=18;" parent="1" vertex="1">
          <mxGeometry x="210" y="103" width="520" height="220" as="geometry" />
        </mxCell>
        <mxCell id="C2tQ5hw08ddfcZUhMbzI-4" value="&lt;font style=&quot;font-size: 22px;&quot;&gt;森林碳储量估算系统&lt;/font&gt;" style="text;html=1;align=center;verticalAlign=middle;whiteSpace=wrap;rounded=0;fontSize=18;" parent="1" vertex="1">
          <mxGeometry x="332.5" y="120" width="275" height="10" as="geometry" />
        </mxCell>
        <mxCell id="C2tQ5hw08ddfcZUhMbzI-5" value="点云去噪" style="rounded=0;whiteSpace=wrap;html=1;fontSize=18;" parent="1" vertex="1">
          <mxGeometry x="220" y="170" width="100" height="40" as="geometry" />
        </mxCell>
        <mxCell id="C2tQ5hw08ddfcZUhMbzI-13" value="" style="shape=flexArrow;endArrow=classic;startArrow=classic;html=1;rounded=0;entryX=0.124;entryY=1.009;entryDx=0;entryDy=0;entryPerimeter=0;" parent="1" target="C2tQ5hw08ddfcZUhMbzI-1" edge="1">
          <mxGeometry width="100" height="100" relative="1" as="geometry">
            <mxPoint x="161" y="410" as="sourcePoint" />
            <mxPoint x="260" y="360" as="targetPoint" />
          </mxGeometry>
        </mxCell>
        <mxCell id="C2tQ5hw08ddfcZUhMbzI-15" value="" style="shape=flexArrow;endArrow=classic;startArrow=classic;html=1;rounded=0;entryX=0.124;entryY=1.009;entryDx=0;entryDy=0;entryPerimeter=0;fontSize=18;" parent="1" edge="1">
          <mxGeometry width="100" height="100" relative="1" as="geometry">
            <mxPoint x="690" y="410" as="sourcePoint" />
            <mxPoint x="690" y="353" as="targetPoint" />
          </mxGeometry>
        </mxCell>
        <mxCell id="C2tQ5hw08ddfcZUhMbzI-30" value="&lt;font style=&quot;font-size: 18px;&quot;&gt;&lt;font style=&quot;font-size: 18px;&quot;&gt;OpenLayers&lt;/font&gt;+Vue&lt;/font&gt;" style="text;html=1;align=center;verticalAlign=middle;whiteSpace=wrap;rounded=0;fontSize=18;" parent="1" vertex="1">
          <mxGeometry x="440" y="281" width="60" height="30" as="geometry" />
        </mxCell>
        <mxCell id="W-qZDdTBoF4F8lyK2ylj-1" value="点云归一化" style="rounded=0;whiteSpace=wrap;html=1;fontSize=18;" vertex="1" parent="1">
          <mxGeometry x="332.5" y="170" width="107.5" height="40" as="geometry" />
        </mxCell>
        <mxCell id="W-qZDdTBoF4F8lyK2ylj-2" value="树木信息csv" style="rounded=0;whiteSpace=wrap;html=1;fontSize=18;" vertex="1" parent="1">
          <mxGeometry x="460" y="241.5" width="110" height="38.5" as="geometry" />
        </mxCell>
        <mxCell id="W-qZDdTBoF4F8lyK2ylj-3" value="单木分割" style="rounded=0;whiteSpace=wrap;html=1;fontSize=18;" vertex="1" parent="1">
          <mxGeometry x="340" y="241" width="100" height="39" as="geometry" />
        </mxCell>
        <mxCell id="W-qZDdTBoF4F8lyK2ylj-4" value="数字高程模型" style="rounded=0;whiteSpace=wrap;html=1;fontSize=18;" vertex="1" parent="1">
          <mxGeometry x="460" y="170" width="110" height="50" as="geometry" />
        </mxCell>
        <mxCell id="W-qZDdTBoF4F8lyK2ylj-5" value="碳储量展示" style="rounded=0;whiteSpace=wrap;html=1;fontSize=18;" vertex="1" parent="1">
          <mxGeometry x="220" y="232" width="110" height="49" as="geometry" />
        </mxCell>
        <mxCell id="W-qZDdTBoF4F8lyK2ylj-6" value="数字表面模型" style="rounded=0;whiteSpace=wrap;html=1;fontSize=18;" vertex="1" parent="1">
          <mxGeometry x="585" y="170" width="125" height="50" as="geometry" />
        </mxCell>
        <mxCell id="W-qZDdTBoF4F8lyK2ylj-9" value="数据交互" style="rounded=0;whiteSpace=wrap;html=1;fontSize=18;" vertex="1" parent="1">
          <mxGeometry x="592.5" y="241" width="110" height="39" as="geometry" />
        </mxCell>
        <mxCell id="W-qZDdTBoF4F8lyK2ylj-10" style="edgeStyle=orthogonalEdgeStyle;rounded=0;orthogonalLoop=1;jettySize=auto;html=1;exitX=0.5;exitY=1;exitDx=0;exitDy=0;fontSize=18;" edge="1" parent="1" source="W-qZDdTBoF4F8lyK2ylj-9" target="W-qZDdTBoF4F8lyK2ylj-9">
          <mxGeometry relative="1" as="geometry" />
        </mxCell>
        <mxCell id="W-qZDdTBoF4F8lyK2ylj-11" value="" style="rounded=1;whiteSpace=wrap;html=1;strokeWidth=2;" vertex="1" parent="1">
          <mxGeometry x="70" y="415" width="730" height="270" as="geometry" />
        </mxCell>
        <mxCell id="W-qZDdTBoF4F8lyK2ylj-12" value="&lt;font style=&quot;font-size: 24px;&quot;&gt;后台处理层&lt;/font&gt;" style="rounded=0;whiteSpace=wrap;html=1;align=center;dashed=1;" vertex="1" parent="1">
          <mxGeometry x="110" y="438" width="40" height="220" as="geometry" />
        </mxCell>
        <mxCell id="W-qZDdTBoF4F8lyK2ylj-13" value="" style="rounded=0;whiteSpace=wrap;html=1;dashed=1;fontSize=18;" vertex="1" parent="1">
          <mxGeometry x="210" y="438" width="520" height="220" as="geometry" />
        </mxCell>
        <mxCell id="W-qZDdTBoF4F8lyK2ylj-15" value="GIS服务器：GeoServer" style="rounded=0;whiteSpace=wrap;html=1;fontSize=18;" vertex="1" parent="1">
          <mxGeometry x="217" y="586" width="160" height="45" as="geometry" />
        </mxCell>
        <mxCell id="W-qZDdTBoF4F8lyK2ylj-18" value="数据访问" style="rounded=0;whiteSpace=wrap;html=1;fontSize=18;" vertex="1" parent="1">
          <mxGeometry x="570" y="585" width="140" height="45" as="geometry" />
        </mxCell>
        <mxCell id="W-qZDdTBoF4F8lyK2ylj-19" value="Web服务器Tomcat" style="rounded=0;whiteSpace=wrap;html=1;fontSize=18;" vertex="1" parent="1">
          <mxGeometry x="395" y="585" width="150" height="45" as="geometry" />
        </mxCell>
        <mxCell id="W-qZDdTBoF4F8lyK2ylj-20" value="Python地理处理" style="rounded=0;whiteSpace=wrap;html=1;fontSize=18;" vertex="1" parent="1">
          <mxGeometry x="380" y="505" width="150" height="41.25" as="geometry" />
        </mxCell>
        <mxCell id="W-qZDdTBoF4F8lyK2ylj-21" value="机器学习模型" style="rounded=0;whiteSpace=wrap;html=1;fontSize=18;" vertex="1" parent="1">
          <mxGeometry x="227" y="503.63" width="120" height="44" as="geometry" />
        </mxCell>
        <mxCell id="W-qZDdTBoF4F8lyK2ylj-24" style="edgeStyle=orthogonalEdgeStyle;rounded=0;orthogonalLoop=1;jettySize=auto;html=1;exitX=0.5;exitY=1;exitDx=0;exitDy=0;fontSize=18;" edge="1" parent="1">
          <mxGeometry relative="1" as="geometry">
            <mxPoint x="635" y="616" as="sourcePoint" />
            <mxPoint x="635" y="616" as="targetPoint" />
          </mxGeometry>
        </mxCell>
        <mxCell id="W-qZDdTBoF4F8lyK2ylj-25" value="点云处理算法" style="rounded=0;whiteSpace=wrap;html=1;fontSize=18;" vertex="1" parent="1">
          <mxGeometry x="560" y="505" width="150" height="41.25" as="geometry" />
        </mxCell>
        <mxCell id="W-qZDdTBoF4F8lyK2ylj-38" value="" style="rounded=1;whiteSpace=wrap;html=1;strokeWidth=2;" vertex="1" parent="1">
          <mxGeometry x="70" y="746" width="730" height="214" as="geometry" />
        </mxCell>
        <mxCell id="W-qZDdTBoF4F8lyK2ylj-39" value="&lt;font style=&quot;font-size: 24px;&quot;&gt;数据层&lt;/font&gt;" style="rounded=0;whiteSpace=wrap;html=1;align=center;dashed=1;" vertex="1" parent="1">
          <mxGeometry x="110" y="769" width="40" height="171" as="geometry" />
        </mxCell>
        <mxCell id="W-qZDdTBoF4F8lyK2ylj-40" value="" style="rounded=0;whiteSpace=wrap;html=1;dashed=1;fontSize=18;" vertex="1" parent="1">
          <mxGeometry x="210" y="769" width="520" height="141" as="geometry" />
        </mxCell>
        <mxCell id="W-qZDdTBoF4F8lyK2ylj-42" value="业务数据库" style="rounded=0;whiteSpace=wrap;html=1;fontSize=18;" vertex="1" parent="1">
          <mxGeometry x="258.5" y="791.01" width="150" height="45" as="geometry" />
        </mxCell>
        <mxCell id="W-qZDdTBoF4F8lyK2ylj-43" value="&lt;span style=&quot;text-decoration-line: none;&quot;&gt;PostgreSQL&lt;/span&gt;&lt;span style=&quot;font-size: 18px;&quot;&gt;+MySQL&lt;/span&gt;" style="text;html=1;align=center;verticalAlign=middle;whiteSpace=wrap;rounded=0;fontSize=18;" vertex="1" parent="1">
          <mxGeometry x="363.5" y="900" width="203" height="69.87" as="geometry" />
        </mxCell>
        <mxCell id="W-qZDdTBoF4F8lyK2ylj-46" value="地理数据库" style="rounded=0;whiteSpace=wrap;html=1;fontSize=18;" vertex="1" parent="1">
          <mxGeometry x="477" y="791.01" width="150" height="41.25" as="geometry" />
        </mxCell>
        <mxCell id="W-qZDdTBoF4F8lyK2ylj-47" value="机器学习模型数据库" style="rounded=0;whiteSpace=wrap;html=1;fontSize=18;" vertex="1" parent="1">
          <mxGeometry x="247" y="851.13" width="173" height="48.87" as="geometry" />
        </mxCell>
        <mxCell id="W-qZDdTBoF4F8lyK2ylj-48" style="edgeStyle=orthogonalEdgeStyle;rounded=0;orthogonalLoop=1;jettySize=auto;html=1;exitX=0.5;exitY=1;exitDx=0;exitDy=0;fontSize=18;" edge="1" parent="1">
          <mxGeometry relative="1" as="geometry">
            <mxPoint x="642" y="900.13" as="sourcePoint" />
            <mxPoint x="642" y="900.13" as="targetPoint" />
          </mxGeometry>
        </mxCell>
        <mxCell id="W-qZDdTBoF4F8lyK2ylj-49" value="文件数据库" style="rounded=0;whiteSpace=wrap;html=1;fontSize=18;" vertex="1" parent="1">
          <mxGeometry x="477" y="858.88" width="150" height="41.25" as="geometry" />
        </mxCell>
        <mxCell id="W-qZDdTBoF4F8lyK2ylj-50" value="" style="shape=flexArrow;endArrow=classic;startArrow=classic;html=1;rounded=0;entryX=0.124;entryY=1.009;entryDx=0;entryDy=0;entryPerimeter=0;" edge="1" parent="1">
          <mxGeometry width="100" height="100" relative="1" as="geometry">
            <mxPoint x="170" y="743" as="sourcePoint" />
            <mxPoint x="170" y="685" as="targetPoint" />
          </mxGeometry>
        </mxCell>
        <mxCell id="W-qZDdTBoF4F8lyK2ylj-51" value="" style="shape=flexArrow;endArrow=classic;startArrow=classic;html=1;rounded=0;entryX=0.124;entryY=1.009;entryDx=0;entryDy=0;entryPerimeter=0;fontSize=18;" edge="1" parent="1">
          <mxGeometry width="100" height="100" relative="1" as="geometry">
            <mxPoint x="699" y="743" as="sourcePoint" />
            <mxPoint x="699" y="686" as="targetPoint" />
          </mxGeometry>
        </mxCell>
        <mxCell id="W-qZDdTBoF4F8lyK2ylj-55" value="&lt;font style=&quot;font-size: 22px;&quot;&gt;森林碳储量计算服务&lt;/font&gt;" style="text;html=1;align=center;verticalAlign=middle;whiteSpace=wrap;rounded=0;" vertex="1" parent="1">
          <mxGeometry x="330" y="450" width="270" height="40" as="geometry" />
        </mxCell>
      </root>
    </mxGraphModel>
  </diagram>
</mxfile>
